# MagicaVoxel @ Ephtracy

# group
g MushroomDaddyInterior_01-4

# material
mtllib MushroomDaddyInterior_01-4.mtl
usemtl palette

# normals
vn -1 0 0
vn 1 0 0
vn 0 0 1
vn 0 0 -1
vn 0 -1 0
vn 0 1 0

# texcoords
vt 0.533203 0.5

# verts
v -63 0 63
v -63 0 -63
v -63 40 63
v -63 40 -63
v -61 0 -23
v -61 0 -63
v -61 40 -23
v -61 40 -63
v -57 0 -15
v -57 0 -23
v -57 40 -15
v -57 40 -23
v -53 0 -3
v -53 0 -15
v -53 40 -3
v -53 40 -15
v -49 0 1
v -49 0 -3
v -49 40 1
v -49 40 -3
v -45 0 9
v -45 0 1
v -45 40 9
v -45 40 1
v -41 0 13
v -41 0 9
v -41 40 13
v -41 40 9
v -37 0 21
v -37 0 13
v -37 40 21
v -37 40 13
v -33 0 25
v -33 0 21
v -33 40 25
v -33 40 21
v -29 0 29
v -29 0 25
v -29 40 29
v -29 40 25
v -25 0 33
v -25 0 29
v -25 40 33
v -25 40 29
v -21 0 37
v -21 0 33
v -21 40 37
v -21 40 33
v -13 0 41
v -13 0 37
v -13 40 41
v -13 40 37
v -9 0 45
v -9 0 41
v -9 40 45
v -9 40 41
v -1 0 49
v -1 0 45
v -1 40 49
v -1 40 45
v 3 0 53
v 3 0 49
v 3 40 53
v 3 40 49
v 15 0 57
v 15 0 53
v 15 40 57
v 15 40 53
v 23 0 61
v 23 0 57
v 23 40 61
v 23 40 57
v 63 0 63
v 63 0 61
v 63 40 63
v 63 40 61
v -63 0 63
v -63 40 63
v 63 0 63
v 63 40 63
v 23 0 61
v 23 40 61
v 63 0 61
v 63 40 61
v 15 0 57
v 15 40 57
v 23 0 57
v 23 40 57
v 3 0 53
v 3 40 53
v 15 0 53
v 15 40 53
v -1 0 49
v -1 40 49
v 3 0 49
v 3 40 49
v -9 0 45
v -9 40 45
v -1 0 45
v -1 40 45
v -13 0 41
v -13 40 41
v -9 0 41
v -9 40 41
v -21 0 37
v -21 40 37
v -13 0 37
v -13 40 37
v -25 0 33
v -25 40 33
v -21 0 33
v -21 40 33
v -29 0 29
v -29 40 29
v -25 0 29
v -25 40 29
v -33 0 25
v -33 40 25
v -29 0 25
v -29 40 25
v -37 0 21
v -37 40 21
v -33 0 21
v -33 40 21
v -41 0 13
v -41 40 13
v -37 0 13
v -37 40 13
v -45 0 9
v -45 40 9
v -41 0 9
v -41 40 9
v -49 0 1
v -49 40 1
v -45 0 1
v -45 40 1
v -53 0 -3
v -53 40 -3
v -49 0 -3
v -49 40 -3
v -57 0 -15
v -57 40 -15
v -53 0 -15
v -53 40 -15
v -61 0 -23
v -61 40 -23
v -57 0 -23
v -57 40 -23
v -63 0 -63
v -63 40 -63
v -61 0 -63
v -61 40 -63
v -63 0 63
v 63 0 63
v 23 0 61
v 63 0 61
v 15 0 57
v 23 0 57
v 3 0 53
v 15 0 53
v -1 0 49
v 3 0 49
v -9 0 45
v -1 0 45
v -13 0 41
v -9 0 41
v -21 0 37
v -13 0 37
v -25 0 33
v -21 0 33
v -29 0 29
v -25 0 29
v -33 0 25
v -29 0 25
v -37 0 21
v -33 0 21
v -41 0 13
v -37 0 13
v -45 0 9
v -41 0 9
v -49 0 1
v -45 0 1
v -53 0 -3
v -49 0 -3
v -57 0 -15
v -53 0 -15
v -61 0 -23
v -57 0 -23
v -63 0 -63
v -61 0 -63
v -63 40 63
v 63 40 63
v 23 40 61
v 63 40 61
v 15 40 57
v 23 40 57
v 3 40 53
v 15 40 53
v -1 40 49
v 3 40 49
v -9 40 45
v -1 40 45
v -13 40 41
v -9 40 41
v -21 40 37
v -13 40 37
v -25 40 33
v -21 40 33
v -29 40 29
v -25 40 29
v -33 40 25
v -29 40 25
v -37 40 21
v -33 40 21
v -41 40 13
v -37 40 13
v -45 40 9
v -41 40 9
v -49 40 1
v -45 40 1
v -53 40 -3
v -49 40 -3
v -57 40 -15
v -53 40 -15
v -61 40 -23
v -57 40 -23
v -63 40 -63
v -61 40 -63

# faces
f 3/1/1 2/1/1 1/1/1
f 4/1/1 2/1/1 3/1/1
f 5/1/2 6/1/2 7/1/2
f 7/1/2 6/1/2 8/1/2
f 9/1/2 10/1/2 11/1/2
f 11/1/2 10/1/2 12/1/2
f 13/1/2 14/1/2 15/1/2
f 15/1/2 14/1/2 16/1/2
f 17/1/2 18/1/2 19/1/2
f 19/1/2 18/1/2 20/1/2
f 21/1/2 22/1/2 23/1/2
f 23/1/2 22/1/2 24/1/2
f 25/1/2 26/1/2 27/1/2
f 27/1/2 26/1/2 28/1/2
f 29/1/2 30/1/2 31/1/2
f 31/1/2 30/1/2 32/1/2
f 33/1/2 34/1/2 35/1/2
f 35/1/2 34/1/2 36/1/2
f 37/1/2 38/1/2 39/1/2
f 39/1/2 38/1/2 40/1/2
f 41/1/2 42/1/2 43/1/2
f 43/1/2 42/1/2 44/1/2
f 45/1/2 46/1/2 47/1/2
f 47/1/2 46/1/2 48/1/2
f 49/1/2 50/1/2 51/1/2
f 51/1/2 50/1/2 52/1/2
f 53/1/2 54/1/2 55/1/2
f 55/1/2 54/1/2 56/1/2
f 57/1/2 58/1/2 59/1/2
f 59/1/2 58/1/2 60/1/2
f 61/1/2 62/1/2 63/1/2
f 63/1/2 62/1/2 64/1/2
f 65/1/2 66/1/2 67/1/2
f 67/1/2 66/1/2 68/1/2
f 69/1/2 70/1/2 71/1/2
f 71/1/2 70/1/2 72/1/2
f 73/1/2 74/1/2 75/1/2
f 75/1/2 74/1/2 76/1/2
f 79/1/3 78/1/3 77/1/3
f 80/1/3 78/1/3 79/1/3
f 81/1/4 82/1/4 83/1/4
f 83/1/4 82/1/4 84/1/4
f 85/1/4 86/1/4 87/1/4
f 87/1/4 86/1/4 88/1/4
f 89/1/4 90/1/4 91/1/4
f 91/1/4 90/1/4 92/1/4
f 93/1/4 94/1/4 95/1/4
f 95/1/4 94/1/4 96/1/4
f 97/1/4 98/1/4 99/1/4
f 99/1/4 98/1/4 100/1/4
f 101/1/4 102/1/4 103/1/4
f 103/1/4 102/1/4 104/1/4
f 105/1/4 106/1/4 107/1/4
f 107/1/4 106/1/4 108/1/4
f 109/1/4 110/1/4 111/1/4
f 111/1/4 110/1/4 112/1/4
f 113/1/4 114/1/4 115/1/4
f 115/1/4 114/1/4 116/1/4
f 117/1/4 118/1/4 119/1/4
f 119/1/4 118/1/4 120/1/4
f 121/1/4 122/1/4 123/1/4
f 123/1/4 122/1/4 124/1/4
f 125/1/4 126/1/4 127/1/4
f 127/1/4 126/1/4 128/1/4
f 129/1/4 130/1/4 131/1/4
f 131/1/4 130/1/4 132/1/4
f 133/1/4 134/1/4 135/1/4
f 135/1/4 134/1/4 136/1/4
f 137/1/4 138/1/4 139/1/4
f 139/1/4 138/1/4 140/1/4
f 141/1/4 142/1/4 143/1/4
f 143/1/4 142/1/4 144/1/4
f 145/1/4 146/1/4 147/1/4
f 147/1/4 146/1/4 148/1/4
f 149/1/4 150/1/4 151/1/4
f 151/1/4 150/1/4 152/1/4
f 155/1/5 154/1/5 153/1/5
f 156/1/5 154/1/5 155/1/5
f 157/1/5 155/1/5 153/1/5
f 158/1/5 155/1/5 157/1/5
f 159/1/5 157/1/5 153/1/5
f 160/1/5 157/1/5 159/1/5
f 161/1/5 159/1/5 153/1/5
f 162/1/5 159/1/5 161/1/5
f 163/1/5 161/1/5 153/1/5
f 164/1/5 161/1/5 163/1/5
f 165/1/5 163/1/5 153/1/5
f 166/1/5 163/1/5 165/1/5
f 167/1/5 165/1/5 153/1/5
f 168/1/5 165/1/5 167/1/5
f 169/1/5 167/1/5 153/1/5
f 170/1/5 167/1/5 169/1/5
f 171/1/5 169/1/5 153/1/5
f 172/1/5 169/1/5 171/1/5
f 173/1/5 171/1/5 153/1/5
f 174/1/5 171/1/5 173/1/5
f 175/1/5 173/1/5 153/1/5
f 176/1/5 173/1/5 175/1/5
f 177/1/5 175/1/5 153/1/5
f 178/1/5 175/1/5 177/1/5
f 179/1/5 177/1/5 153/1/5
f 180/1/5 177/1/5 179/1/5
f 181/1/5 179/1/5 153/1/5
f 182/1/5 179/1/5 181/1/5
f 183/1/5 181/1/5 153/1/5
f 184/1/5 181/1/5 183/1/5
f 185/1/5 183/1/5 153/1/5
f 186/1/5 183/1/5 185/1/5
f 187/1/5 185/1/5 153/1/5
f 188/1/5 185/1/5 187/1/5
f 189/1/5 187/1/5 153/1/5
f 190/1/5 187/1/5 189/1/5
f 191/1/6 192/1/6 193/1/6
f 193/1/6 192/1/6 194/1/6
f 191/1/6 193/1/6 195/1/6
f 195/1/6 193/1/6 196/1/6
f 191/1/6 195/1/6 197/1/6
f 197/1/6 195/1/6 198/1/6
f 191/1/6 197/1/6 199/1/6
f 199/1/6 197/1/6 200/1/6
f 191/1/6 199/1/6 201/1/6
f 201/1/6 199/1/6 202/1/6
f 191/1/6 201/1/6 203/1/6
f 203/1/6 201/1/6 204/1/6
f 191/1/6 203/1/6 205/1/6
f 205/1/6 203/1/6 206/1/6
f 191/1/6 205/1/6 207/1/6
f 207/1/6 205/1/6 208/1/6
f 191/1/6 207/1/6 209/1/6
f 209/1/6 207/1/6 210/1/6
f 191/1/6 209/1/6 211/1/6
f 211/1/6 209/1/6 212/1/6
f 191/1/6 211/1/6 213/1/6
f 213/1/6 211/1/6 214/1/6
f 191/1/6 213/1/6 215/1/6
f 215/1/6 213/1/6 216/1/6
f 191/1/6 215/1/6 217/1/6
f 217/1/6 215/1/6 218/1/6
f 191/1/6 217/1/6 219/1/6
f 219/1/6 217/1/6 220/1/6
f 191/1/6 219/1/6 221/1/6
f 221/1/6 219/1/6 222/1/6
f 191/1/6 221/1/6 223/1/6
f 223/1/6 221/1/6 224/1/6
f 191/1/6 223/1/6 225/1/6
f 225/1/6 223/1/6 226/1/6
f 191/1/6 225/1/6 227/1/6
f 227/1/6 225/1/6 228/1/6
